<?xml version="1.0" encoding="UTF-8"?>
<!DOCTYPE svg PUBLIC "-//W3C//DTD SVG 1.1//EN" "http://www.w3.org/Graphics/SVG/1.1/DTD/svg11.dtd">
<!-- Creator: CorelDRAW X6 -->
<svg xmlns="http://www.w3.org/2000/svg" xml:space="preserve" width="8.5in" height="11in" version="1.1" style="shape-rendering:geometricPrecision; text-rendering:geometricPrecision; image-rendering:optimizeQuality; fill-rule:evenodd; clip-rule:evenodd"
viewBox="0 0 8500 11000"
 xmlns:xlink="http://www.w3.org/1999/xlink">
 <defs>
  <style type="text/css">
   <![CDATA[
    .fil0 {fill:#5172DB;fill-rule:nonzero}
   ]]>
  </style>
 </defs>
 <g id="Layer_x0020_1">
  <metadata id="CorelCorpID_0Corel-Layer"/>
  <path class="fil0" d="M1119 524l-29 0 0 -187c-7,7 -16,14 -28,20 -11,7 -22,12 -31,15l0 -28c16,-8 31,-17 43,-28 12,-11 21,-22 26,-32l19 0 0 240z"/>
  <path class="fil0" d="M1348 496l0 28 -158 0c0,-7 1,-14 3,-20 4,-11 11,-21 20,-32 9,-10 22,-22 38,-36 26,-21 43,-38 53,-51 9,-12 14,-24 14,-35 0,-12 -4,-21 -13,-29 -8,-8 -19,-12 -33,-12 -14,0 -26,4 -34,13 -9,8 -13,20 -13,35l-30 -3c2,-22 10,-40 23,-51 14,-12 32,-18 54,-18 23,0 41,6 54,19 13,13 20,29 20,47 0,10 -2,19 -6,28 -4,9 -10,19 -19,29 -9,10 -24,24 -45,42 -18,15 -29,25 -34,30 -5,5 -9,11 -12,16l117 0z"/>
  <path class="fil0" d="M1490 524l-29 0 0 -187c-7,7 -16,14 -28,20 -11,7 -22,12 -31,15l0 -28c16,-8 31,-17 43,-28 12,-11 21,-22 26,-32l19 0 0 240z"/>
  <polygon class="fil0" points="1581,524 1581,491 1615,491 1615,524 "/>
  <path class="fil0" d="M1666 591l0 -239 27 0 0 23c6,-9 13,-15 21,-20 8,-4 18,-7 29,-7 15,0 28,4 39,11 11,8 20,18 26,32 6,14 9,29 9,45 0,18 -3,34 -10,48 -6,14 -16,25 -28,33 -12,8 -25,11 -38,11 -10,0 -19,-2 -26,-6 -8,-4 -14,-9 -19,-16l0 84 -29 0zm27 -152c0,22 5,39 13,49 9,11 20,16 33,16 13,0 24,-6 33,-17 9,-11 14,-28 14,-51 0,-22 -5,-38 -14,-49 -9,-11 -20,-16 -32,-16 -12,0 -23,6 -33,17 -10,12 -14,29 -14,51z"/>
  <path class="fil0" d="M1964 503c-11,9 -21,16 -31,20 -10,4 -21,6 -32,6 -19,0 -34,-5 -44,-14 -10,-9 -15,-21 -15,-35 0,-8 2,-16 6,-23 4,-7 9,-13 15,-17 6,-4 13,-7 21,-10 6,-2 15,-3 26,-4 24,-3 41,-6 52,-10 0,-4 0,-7 0,-8 0,-12 -3,-20 -8,-25 -8,-7 -19,-10 -33,-10 -14,0 -24,2 -31,7 -7,5 -11,13 -15,26l-29 -4c3,-12 7,-22 13,-30 6,-8 15,-13 26,-17 11,-4 24,-6 39,-6 15,0 27,2 36,5 9,4 16,8 20,13 4,5 7,12 9,20 1,5 1,14 1,27l0 39c0,27 1,44 2,52 1,7 4,14 7,21l-31 0c-3,-6 -5,-13 -6,-22zm-2 -65c-11,4 -27,8 -48,11 -12,2 -21,4 -26,6 -5,2 -9,5 -12,9 -3,4 -4,9 -4,14 0,8 3,14 9,19 6,5 15,8 26,8 11,0 21,-2 30,-7 9,-5 15,-12 19,-20 3,-7 5,-16 5,-29l0 -11z"/>
  <path class="fil0" d="M2031 539l28 4c1,9 5,15 10,19 7,5 17,8 30,8 14,0 24,-3 31,-8 7,-5 12,-13 15,-23 2,-6 2,-18 2,-38 -13,15 -29,23 -48,23 -24,0 -42,-9 -55,-26 -13,-17 -20,-38 -20,-62 0,-17 3,-32 9,-46 6,-14 15,-25 26,-32 11,-8 25,-11 40,-11 20,0 37,8 50,25l0 -21 27 0 0 149c0,27 -3,46 -8,57 -5,11 -14,20 -26,27 -12,7 -27,10 -44,10 -21,0 -37,-5 -50,-14 -13,-9 -19,-23 -18,-42zm24 -104c0,23 5,39 14,50 9,10 20,16 34,16 14,0 25,-5 34,-16 9,-10 14,-27 14,-49 0,-21 -5,-37 -14,-48 -9,-11 -21,-16 -34,-16 -13,0 -24,5 -33,16 -9,11 -14,26 -14,47z"/>
  <path class="fil0" d="M2340 468l30 4c-5,18 -14,31 -26,41 -13,10 -29,15 -49,15 -25,0 -45,-8 -60,-23 -15,-16 -22,-37 -22,-65 0,-29 7,-52 22,-68 15,-16 34,-24 58,-24 23,0 42,8 57,24 15,16 22,38 22,66 0,2 0,4 0,8l-129 0c1,19 6,34 16,44 10,10 22,15 36,15 11,0 20,-3 27,-9 8,-6 14,-15 18,-27zm-96 -47l96 0c-1,-15 -5,-25 -11,-33 -9,-11 -21,-17 -36,-17 -13,0 -25,5 -34,14 -9,9 -14,21 -15,36z"/>
 </g>
</svg>
